<svg xmlns="http://www.w3.org/2000/svg" width="48" height="48" viewBox="0 0 48 48">
    <g fill="none" fill-rule="evenodd">
        <circle cx="24" cy="24" r="24" fill="#465EFF"/>
        <path fill="#FFF" d="M30 14v2a1 1 0 0 1-2 0v-2h-8v2a1 1 0 1 1-2 0v-2h-4a1 1 0 0 0-1 1v5h22v-5a1 1 0 0 0-1-1h-4zm0-2h4a3 3 0 0 1 3 3v19a3 3 0 0 1-3 3H14a3 3 0 0 1-3-3V15a3 3 0 0 1 3-3h4v-1a1 1 0 1 1 2 0v1h8v-1a1 1 0 0 1 2 0v1zM13 22v12a1 1 0 0 0 1 1h20a1 1 0 0 0 1-1V22H13zm14 9h3c.765 0 .87-.054.93-.274a1 1 0 1 1 1.928.536C32.51 32.513 31.564 33 30 33h-3a1 1 0 1 1 0-2z"/>
    </g>
</svg>
