<svg xmlns="http://www.w3.org/2000/svg" width="48" height="48" viewBox="0 0 48 48">
    <g fill="none" fill-rule="evenodd">
        <circle cx="24" cy="24" r="24" fill="#465EFF"/>
        <path fill="#FFF" d="M25 35.178l9-5.727v-9.63l-3.944 2.51a.995.995 0 0 1-.037.024L25 25.549v9.63zm-2 0v-9.63l-9-5.726v9.63l9 5.726zm1.55 2.658a.995.995 0 0 1-1.1 0l-10.987-6.992A1 1 0 0 1 12 30V18.015a.997.997 0 0 1 .48-.87l5.465-3.478a.995.995 0 0 1 .035-.022l5.48-3.489a1 1 0 0 1 1.074 0l10.985 6.989a.996.996 0 0 1 .481.87V30a1 1 0 0 1-.463.844l-10.988 6.992zM33.136 18l-9.14-5.815-3.635 2.314 9.138 5.816L33.137 18zm-18.275 0L24 23.815l3.637-2.315-9.137-5.815L14.862 18zm13.693 10.832a1 1 0 1 1-1.11-1.664l3-2a1 1 0 1 1 1.11 1.664l-3 2z"/>
    </g>
</svg>
