<svg xmlns="http://www.w3.org/2000/svg" width="48" height="48" viewBox="0 0 48 48">
    <g fill="none" fill-rule="evenodd">
        <circle cx="24" cy="24" r="24" fill="#465EFF"/>
        <path fill="#FFF" d="M32.965 31a3.5 3.5 0 1 1-6.93 0h-6.07a3.5 3.5 0 1 1-6.93 0H10V19a4 4 0 0 1 4-4h16a1 1 0 0 1 1 1v4h3a4 4 0 0 1 4 4v6a1 1 0 0 1-1 1h-4.035zM29 28.035V17H14a2 2 0 0 0-2 2v10h2.05c.632-.619 1.496-1 2.45-1 .954 0 1.818.381 2.45 1h8.1a3.49 3.49 0 0 1 1.95-.965zm2 .302c.353.168.674.393.95.663H36v-5a2 2 0 0 0-2-2h-3v6.337zM16.5 33a1.5 1.5 0 1 0 0-3 1.5 1.5 0 0 0 0 3zm13 0a1.5 1.5 0 1 0 0-3 1.5 1.5 0 0 0 0 3z"/>
    </g>
</svg>
