<?xml version="1.0" encoding="UTF-8" standalone="no"?>
<svg width="13px" height="13px" viewBox="0 0 13 13" version="1.1" xmlns="http://www.w3.org/2000/svg" xmlns:xlink="http://www.w3.org/1999/xlink">
    <!-- Generator: Sketch 46.2 (44496) - http://www.bohemiancoding.com/sketch -->
    <title>FacebookBG</title>
    <desc>Created with Sketch.</desc>
    <defs></defs>
    <g id="Desktop-HD" stroke="none" stroke-width="1" fill="none" fill-rule="evenodd">
        <g transform="translate(-824.000000, -4822.000000)" id="FacebookBG" fill="#232842">
            <path d="M824,4824 L824,4833 L824,4833 C824,4834.10457 824.895431,4835 826,4835 L835,4835 L835,4835 C836.104569,4835 837,4834.10457 837,4833 L837,4824 L837,4824 C837,4822.89543 836.104569,4822 835,4822 L826,4822 L826,4822 C824.895431,4822 824,4822.89543 824,4824 Z M831,4828 L831,4827.00335 C831,4825.34238 832.343146,4824 834,4824 C834.350418,4824 834.68705,4824.06039 835,4824.17137 L835,4826 C833.895431,4826 833,4826.88743 833,4827.99961 L835,4828 L834.744066,4830 L833,4830 L833,4834.00039 C833,4834.36452 833.096515,4834.70593 833.265769,4835 L831.000002,4835 C831.000001,4834.99888 831,4834.99777 831,4834.99665 L831,4830 L829,4830 L829,4828 L831,4828 Z"></path>
        </g>
    </g>
</svg>