<?xml version="1.0" encoding="UTF-8" standalone="no"?>
<svg width="13px" height="13px" viewBox="0 0 13 13" version="1.1" xmlns="http://www.w3.org/2000/svg" xmlns:xlink="http://www.w3.org/1999/xlink">
    <!-- Generator: Sketch 46.2 (44496) - http://www.bohemiancoding.com/sketch -->
    <title>Shape</title>
    <desc>Created with Sketch.</desc>
    <defs></defs>
    <g id="Desktop-HD" stroke="none" stroke-width="1" fill="none" fill-rule="evenodd">
        <g transform="translate(-824.000000, -4850.000000)" id="Shape" fill-rule="nonzero" fill="#232842">
            <path d="M834.771367,4850 L826.228633,4850 C824.997822,4850 824,4850.99782 824,4852.22863 L824,4860.77151 C824,4862.00218 824.997822,4863 826.228633,4863 L834.771511,4863 C836.002178,4863 837,4862.00218 837,4860.77137 L837,4852.22863 C837,4850.99782 836.002178,4850 834.771367,4850 Z M828.471278,4855.3729 L828.471278,4855.3729 C828.472144,4855.37146 828.473156,4855.36987 828.474311,4855.36813 C828.500167,4855.32162 828.5279,4855.27641 828.556933,4855.23192 C828.573978,4855.20578 828.592033,4855.18064 828.610089,4855.15522 C828.630167,4855.1272 828.650678,4855.09976 828.671911,4855.0726 C828.690111,4855.0492 828.707878,4855.0258 828.727089,4855.00327 C828.7632,4854.96051 828.8009,4854.91906 828.840044,4854.8789 C828.859111,4854.8594 828.879189,4854.84062 828.898978,4854.8217 C828.927144,4854.79483 828.955889,4854.76869 828.9855,4854.74327 C829.005289,4854.72622 829.024789,4854.70903 829.045156,4854.69257 C829.090944,4854.65559 829.138322,4854.62006 829.186856,4854.58654 C829.204478,4854.57441 829.222967,4854.56314 829.241022,4854.55159 C829.279444,4854.5266 829.318589,4854.50277 829.3586,4854.47994 C829.377811,4854.46911 829.396878,4854.45799 829.416378,4854.44759 C829.471989,4854.41827 829.528467,4854.39053 829.586389,4854.36569 C829.599822,4854.35991 829.613689,4854.35514 829.627122,4854.34966 C829.676811,4854.32943 829.727222,4854.31094 829.778644,4854.29419 C829.796989,4854.28812 829.815189,4854.2822 829.833533,4854.27671 C829.897378,4854.25764 829.9618,4854.24046 830.027667,4854.22688 C830.034889,4854.22529 830.042544,4854.22442 830.049767,4854.22298 C830.110289,4854.21099 830.171822,4854.20203 830.233789,4854.19481 C830.252133,4854.19279 830.270478,4854.19091 830.288678,4854.18918 C830.3583,4854.18282 830.428644,4854.17849 830.499856,4854.17849 C830.571067,4854.17849 830.641267,4854.18282 830.711033,4854.18918 C830.729233,4854.19091 830.747578,4854.19279 830.765778,4854.19481 C830.828033,4854.20189 830.889422,4854.21099 830.949944,4854.22298 C830.957311,4854.22442 830.964967,4854.22529 830.972044,4854.22688 C831.037911,4854.24046 831.102333,4854.25764 831.166178,4854.27671 C831.184522,4854.28234 831.202578,4854.28827 831.220922,4854.29419 C831.272344,4854.31109 831.323044,4854.32972 831.372878,4854.3498 C831.386456,4854.35529 831.400033,4854.35991 831.413178,4854.36569 C831.4711,4854.39053 831.527722,4854.41827 831.583478,4854.44773 C831.602689,4854.45784 831.621611,4854.46882 831.640678,4854.47951 C831.681122,4854.50233 831.7207,4854.5266 831.7597,4854.55173 C831.777178,4854.56329 831.795378,4854.57412 831.812567,4854.58611 C831.861533,4854.61977 831.909056,4854.65544 831.955133,4854.69271 C831.975067,4854.70889 831.994278,4854.72579 832.013633,4854.74254 C832.043533,4854.7684 832.072856,4854.79498 832.101456,4854.82228 C832.120811,4854.84091 832.1406,4854.85911 832.159089,4854.87832 C832.198667,4854.91862 832.236511,4854.96051 832.273056,4855.0037 C832.291689,4855.02566 832.309167,4855.04862 832.326933,4855.07144 C832.3486,4855.09918 832.369689,4855.12734 832.3902,4855.15609 C832.407967,4855.18093 832.425733,4855.20578 832.442489,4855.23134 C832.681111,4855.59621 832.821078,4856.03157 832.821078,4856.5 C832.821078,4857.7818 831.781511,4858.82137 830.499711,4858.82137 C829.217622,4858.82137 828.178344,4857.7818 828.178344,4856.5 C828.178633,4856.09064 828.285378,4855.707 828.471278,4855.3729 Z M835.607122,4860.07861 C835.607122,4860.98124 834.875367,4861.71271 833.972878,4861.71271 L827.027122,4861.71271 C826.124489,4861.71271 825.392878,4860.98124 825.392878,4860.07861 L825.392878,4855.3729 L826.960967,4855.3729 C826.847722,4855.72852 826.785756,4856.10711 826.785756,4856.5 C826.785756,4858.55111 828.448889,4860.21424 830.5,4860.21424 C832.551111,4860.21424 834.214244,4858.55111 834.214244,4856.5 C834.214244,4856.10697 834.152278,4855.72852 834.039033,4855.3729 L835.607122,4855.3729 L835.607122,4860.07861 Z M835.607122,4852.6 C835.607122,4852.70256 835.524067,4852.78576 835.421367,4852.78576 L834.4,4852.78576 C834.2973,4852.78576 834.214244,4852.7027 834.214244,4852.6 L834.214244,4851.57863 C834.214244,4851.47608 834.2973,4851.39288 834.4,4851.39288 L835.421367,4851.39288 C835.524067,4851.39288 835.607122,4851.47608 835.607122,4851.57863 L835.607122,4852.6 Z"></path>
        </g>
    </g>
</svg>