<svg xmlns="http://www.w3.org/2000/svg" width="56" height="56" viewBox="0 0 56 56">
    <path fill="#FFF" fill-rule="nonzero" d="M36.005 24.607c-.75 0-1.366-.616-1.366-1.349 0-.772.627-1.392 1.385-1.381.674.01 1.241.529 1.333 1.197a1.355 1.355 0 0 1-1.352 1.533zm-1.401 1.723h2.824v7.842h-2.824V26.33zM23.79 29.314v4.858h-2.846v-8.464c0-2.354 1.486-3.882 3.8-3.882.595 0 1.168.107 1.401.213v2.376c-.147-.043-.423-.106-.89-.106-.637 0-1.465.276-1.465 1.442v1.145h2.356v2.418h-2.356zm18.728 4.858c-2.038 0-3.311-1.208-3.311-3.223v-3.532-5.524c0-.009.016-.016.016-.016h2.77c.008 0 .016.007.016.016v3.542c0 .009.007.017.016.017h2.078s.008.007.008.016v2.47c0 .008-.017.016-.017.016h-2.069a.017.017 0 0 0-.016.017v2.49c0 .91.424 1.208 1.23 1.208.326 0 .69-.039.851-.08.01-.001.02.007.02.017v2.301a.017.017 0 0 1-.01.015c-.257.106-.764.25-1.582.25zm-26.173-7.737h2.824v7.737h-2.824v-7.737zm1.412-1.828c-.75 0-1.366-.616-1.366-1.349 0-.772.627-1.392 1.385-1.381.674.01 1.241.529 1.333 1.197a1.355 1.355 0 0 1-1.352 1.533zm13.477 9.565c-2.038 0-3.311-1.208-3.312-3.223v-3.532-5.524c0-.009.016-.016.016-.016h2.779s.008.007.008.016v3.542c0 .009.007.017.016.017h2.069c.009 0 .016.007.016.016v2.47a.017.017 0 0 1-.016.016h-2.07a.017.017 0 0 0-.015.017v2.49c0 .91.423 1.208 1.23 1.208.326 0 .69-.039.851-.08.01-.001.02.007.02.017v2.301a.017.017 0 0 1-.01.015c-.257.106-.764.25-1.582.25zm-19.49-12.315h2.825v12.315h-2.824V21.857zm44.001 2.68a27.608 27.608 0 0 1-6.344 21.63C44.076 52.417 36.276 56 28.002 56 12.825 56 0 43.326 0 28.324 0 20.742 2.93 13.617 8.252 8.26c5.401-5.436 12.566-8.345 20.15-8.26 13.7.196 25.455 10.743 27.344 24.535zm-8.409 19.816a24.81 24.81 0 0 0 5.705-19.434C51.337 12.47 40.728 2.95 28.364 2.777l-.366-.002c-6.716 0-13.045 2.648-17.824 7.458-4.8 4.83-7.443 11.255-7.443 18.09 0 13.5 11.573 24.903 25.272 24.903 7.48 0 14.527-3.234 19.334-8.873z"/>
</svg>
