<svg xmlns="http://www.w3.org/2000/svg" width="48" height="48" viewBox="0 0 48 48">
    <g fill="none" fill-rule="evenodd">
        <circle cx="24" cy="24" r="24" fill="#465EFF"/>
        <path fill="#FFF" d="M24 29a5 5 0 1 1 0-10 5 5 0 0 1 0 10zm0-2a3 3 0 1 0 0-6 3 3 0 0 0 0 6zm-13.8-2.4a1 1 0 0 1 0-1.2C14.373 17.835 18.98 15 24 15c5.02 0 9.627 2.835 13.8 8.4a1 1 0 0 1 0 1.2C33.627 30.165 29.02 33 24 33c-5.02 0-9.627-2.835-13.8-8.4zM24 31c4.142 0 8.048-2.302 11.74-7-3.692-4.698-7.598-7-11.74-7s-8.048 2.302-11.74 7c3.692 4.698 7.598 7 11.74 7z"/>
    </g>
</svg>
