<svg xmlns="http://www.w3.org/2000/svg" width="48" height="48" viewBox="0 0 48 48">
    <g fill="none" fill-rule="evenodd">
        <circle cx="24" cy="24" r="24" fill="#465EFF"/>
        <path fill="#FFF" d="M26 34a2 2 0 1 1-4 0h-6a3 3 0 0 1-1-5.83V21a9 9 0 1 1 18 0v7.17A3.001 3.001 0 0 1 32 34h-6zm5-5.83V21a7 7 0 0 0-14 0v7.17a2 2 0 0 1-1.334 1.886A1.001 1.001 0 0 0 16 32h16a1 1 0 0 0 .334-1.944A2 2 0 0 1 31 28.171zm-6.26-10.045a1 1 0 1 1 .65-1.891C27.543 16.974 29 19.333 29 22a1 1 0 0 1-2 0c0-1.86-.97-3.431-2.26-3.875z"/>
    </g>
</svg>
