<svg xmlns="http://www.w3.org/2000/svg" width="48" height="48" viewBox="0 0 48 48">
    <g fill="none" fill-rule="evenodd">
        <circle cx="24" cy="24" r="24" fill="#465EFF"/>
        <path fill="#465EFF" d="M24 35.7s-9-7.527-9-14.4c0-4.88 4.03-9 9-9s9 4.12 9 9c0 6.873-9 14.4-9 14.4zM24 25a4 4 0 1 0 0-8 4 4 0 0 0 0 8z"/>
        <path fill="#FFF" d="M24.175 34.134a41.701 41.701 0 0 0 3.28-3.54c2.347-2.86 3.926-5.656 4.399-8.128.097-.508.146-.997.146-1.466 0-4.356-3.62-8-8-8s-8 3.644-8 8c0 .469.049.958.146 1.466.473 2.472 2.052 5.268 4.4 8.129A41.701 41.701 0 0 0 24 34.3l.175-.167zM24 37s-10-8.364-10-16c0-5.422 4.477-10 10-10s10 4.578 10 10c0 7.636-10 16-10 16zm0-11a5 5 0 1 1 0-10 5 5 0 0 1 0 10zm0-2a3 3 0 1 0 0-6 3 3 0 0 0 0 6z"/>
    </g>
</svg>
